#!OML:ASF H:\Punching\Project 1\Capture day 1\Session 1\female.ASF
:FULLY-SPECIFIED
:DEGREES
1363
root 0.345244 14.4806 0.597762 12.6311 -12.066 -0.760233
lowerback -3.72541 4.00571 3.39522
upperback -8.21541 5.30299 -1.24284
thorax -6.05265 2.39399 -3.25123
lowerneck -20.211 2.60105 6.41837
upperneck 32.7115 3.4361 -5.40336
head 14.9875 1.50105 -2.72858
rclavicle -6.38378e-014 -1.13307e-014
rhumerus -4.68189 25.3328 -75.6569
rradius 129.148
rwrist -1.83872
rhand -39.4669 15.2003
rfingers 7.12502
rthumb -12.4539 -14.4087
lclavicle -6.38378e-014 -1.13307e-014
lhumerus -17.7123 -5.65027 49.2953
lradius 142.467
lwrist -1.92131
lhand -33.4215 3.69065
lfingers 7.12502
lthumb -6.62116 33.5671
rfemur 3.63257 -1.07951 13.1897
rtibia 45.58
rfoot -3.33174 -25.285
rtoes -8.95599
lfemur -51.055 -2.43815 -19.8859
ltibia 54.7886
lfoot -13.5326 7.3387
ltoes 6.10365
1364
root 0.384412 14.5195 0.698452 11.9331 -11.7091 -0.241715
lowerback -3.41728 3.86797 2.85016
upperback -8.12983 5.12772 -1.21702
thorax -6.19428 2.33721 -2.94335
lowerneck -20.0218 2.46715 6.41664
upperneck 32.8349 3.19959 -5.2602
head 14.9788 1.42448 -2.71563
rclavicle -6.11806e-014 -7.57867e-015
rhumerus -5.41828 25.0885 -75.7446
rradius 129.259
rwrist -1.89837
rhand -39.4163 15.292
rfingers 7.12502
rthumb -12.4051 -14.3199
lclavicle -6.11806e-014 -7.57867e-015
lhumerus -17.6431 -6.22956 49.8919
lradius 142.385
lwrist -1.91123
lhand -33.4736 3.628
lfingers 7.12502
lthumb -6.67142 33.5029
rfemur 1.76321 -1.82162 12.1881
rtibia 49.807
rfoot -1.8996 -21.3666
rtoes -9.77505
lfemur -49.5713 -3.03685 -20.6786
ltibia 53.994
lfoot -13.6016 7.43407
ltoes 6.31804
1365
root 0.42196 14.5576 0.79459 11.2303 -11.3835 0.291729
lowerback -3.12146 3.72285 2.27198
upperback -8.02209 4.93805 -1.19012
thorax -6.30657 2.27657 -2.612
lowerneck -19.8013 2.36084 6.47306
upperneck 32.9397 3.00373 -5.17229
head 14.9604 1.36481 -2.72774
rclavicle 7.67029e-014 4.28381e-014
rhumerus -6.09733 24.8392 -75.8527
rradius 129.377
rwrist -1.95602
rhand -39.3695 15.4066
rfingers 7.12502
rthumb -12.3599 -14.208
lclavicle 7.67029e-014 4.28381e-014
lhumerus -17.5376 -6.79463 50.5396
lradius 142.27
lwrist -1.97203
lhand -33.507 3.51339
lfingers 7.12502
lthumb -6.70365 33.3873
rfemur -0.271049 -2.51434 11.1904
rtibia 54.2027
rfoot -1.31935 -17.1773
rtoes -11.3551
lfemur -48.075 -3.62253 -21.477
ltibia 53.1713
lfoot -13.6256 7.55484
ltoes 6.45979
1366
root 0.457929 14.5951 0.886116 10.5359 -11.076 0.795912
lowerback -2.84615 3.57278 1.71035
upperback -7.89535 4.73845 -1.15105
thorax -6.38455 2.2114 -2.27262
lowerneck -19.552 2.28026 6.57945
upperneck 33.0388 2.84694 -5.13193
head 14.9381 1.32152 -2.76095
rclavicle -1.49523e-014 -3.72721e-015
rhumerus -6.71921 24.5899 -75.9761
rradius 129.499
rwrist -2.00739
rhand -39.3396 15.5322
rfingers 7.12502
rthumb -12.3311 -14.0842
lclavicle -1.49523e-014 -3.72721e-015
lhumerus -17.3984 -7.34505 51.242
lradius 142.101
lwrist -2.15717
lhand -33.5526 3.36213
lfingers 7.12502
lthumb -6.74772 33.2346
rfemur -2.45567 -3.17405 10.2557
rtibia 58.7197
rfoot -1.40393 -13.091
rtoes -13.1358
lfemur -46.5817 -4.18568 -22.239
ltibia 52.3311
lfoot -13.6117 7.69552
ltoes 6.5384
1367
root 0.492248 14.6326 0.973269 9.85546 -10.7895 1.24118
lowerback -2.59069 3.42031 1.19103
upperback -7.75305 4.53403 -1.08912
thorax -6.4306 2.14263 -1.92881
lowerneck -19.266 2.22446 6.72481
upperneck 33.1311 2.72991 -5.13047
head 14.9088 1.29488 -2.80957
rclavicle 1.51325e-014 1.94809e-014
rhumerus -7.29276 24.3447 -76.1157
rradius 129.624
rwrist -2.05033
rhand -39.3265 15.6562
rfingers 7.12502
rthumb -12.3185 -13.9609
lclavicle 1.51325e-014 1.94809e-014
lhumerus -17.2378 -7.88936 52.0042
lradius 141.878
lwrist -2.47225
lhand -33.6354 3.18175
lfingers 7.12502
lthumb -6.8276 33.0517
rfemur -4.78277 -3.83055 9.42155
rtibia 63.3222
rfoot -1.8695 -9.38731
rtoes -14.7057
lfemur -45.0959 -4.71303 -22.9347
ltibia 51.4808
lfoot -13.5653 7.84821
ltoes 6.60134
1368
root 0.525013 14.6709 1.05638 9.19454 -10.5251 1.60426
lowerback -2.35577 3.26831 0.740503
upperback -7.59942 4.33019 -0.999534
thorax -6.447 2.07119 -1.5908
lowerneck -18.9429 2.1912 6.9059
upperneck 33.2225 2.65048 -5.16561
head 14.875 1.28403 -2.87272
rclavicle -3.10353e-014 -1.32192e-014
rhumerus -7.82114 24.1078 -76.2703
rradius 129.744
rwrist -2.08448
rhand -39.3391 15.7495
rfingers 7.12502
rthumb -12.3307 -13.8669
lclavicle -3.10353e-014 -1.32192e-014
lhumerus -17.0631 -8.44046 52.8229
lradius 141.631
lwrist -2.85275
lhand -33.7085 3.04813
lfingers 7.12502
lthumb -6.89821 32.9157
rfemur -7.25068 -4.50485 8.72293
rtibia 67.9813
rfoot -2.4844 -6.31218
rtoes -15.9492
lfemur -43.6249 -5.20143 -23.538
ltibia 50.6291
lfoot -13.4973 8.00892
ltoes 6.6801
1369
root 0.556322 14.7104 1.13586 8.5596 -10.2868 1.86809
lowerback -2.14574 3.11884 0.376099
upperback -7.43726 4.13112 -0.87595
thorax -6.43351 1.99815 -1.26193
lowerneck -18.5831 2.1739 7.11034
upperneck 33.314 2.60348 -5.23607
head 14.8363 1.28542 -2.94877
rclavicle -6.7065e-014 -1.05356e-014
rhumerus -8.30928 23.8844 -76.4407
rradius 129.855
rwrist -2.11344
rhand -39.3816 15.8284
rfingers 7.12502
rthumb -12.3716 -13.7855
lclavicle -6.7065e-014 -1.05356e-014
lhumerus -16.8819 -9.0062 53.696
lradius 141.382
lwrist -3.2334
lhand -33.758 3.00945
lfingers 7.12502
lthumb -6.94593 32.8755
rfemur -9.86226 -5.20317 8.18589
rtibia 72.6706
rfoot -3.09912 -3.99465
rtoes -16.8084
lfemur -42.1774 -5.64735 -24.0288
ltibia 49.7832
lfoot -13.4165 8.17218
ltoes 6.80337
1370
root 0.586504 14.7513 1.2122 7.9538 -10.0762 2.02852
lowerback -1.96912 2.97364 0.111241
upperback -7.26808 3.94014 -0.719158
thorax -6.3862 1.92428 -0.9506
lowerneck -18.1789 2.17202 7.32855
upperneck 33.4019 2.58998 -5.33474
head 14.7892 1.29946 -3.03277
rclavicle 3.06625e-014 -1.98785e-015
rhumerus -8.75132 23.6681 -76.6252
rradius 129.945
rwrist -2.15175
rhand -39.4399 15.8978
rfingers 7.12502
rthumb -12.4278 -13.7127
lclavicle 3.06625e-014 -1.98785e-015
lhumerus -16.6962 -9.61319 54.6242
lradius 141.143
lwrist -3.55923
lhand -33.8346 3.01196
lfingers 7.12502
lthumb -7.01995 32.8756
rfemur -12.6218 -5.93486 7.81762
rtibia 77.3576
rfoot -3.64534 -2.43372
rtoes -17.3734
lfemur -40.756 -6.04788 -24.405
ltibia 48.9453
lfoot -13.3413 8.33842
ltoes 6.96169
1371
root 0.615946 14.7936 1.28611 7.37843 -9.89271 2.08368
lowerback -1.83162 2.83404 -0.0425363
upperback -7.093 3.75974 -0.530736
thorax -6.30269 1.85011 -0.665229
lowerneck -17.7305 2.17937 7.5554
upperneck 33.4859 2.60459 -5.46609
head 14.7333 1.32265 -3.12677
rclavicle 2.75317e-014 8.15017e-015
rhumerus -9.14706 23.4607 -76.8197
rradius 130.014
rwrist -2.21453
rhand -39.4985 15.9542
rfingers 7.12502
rthumb -12.4843 -13.6529
lclavicle 2.75317e-014 8.15017e-015
lhumerus -16.5052 -10.2754 55.5979
lradius 140.928
lwrist -3.78602
lhand -33.9474 3.0465
lfingers 7.12502
lthumb -7.12879 32.9064
rfemur -15.5154 -6.69871 7.62508
rtibia 81.9704
rfoot -4.0915 -1.52064
rtoes -17.709
lfemur -39.3296 -6.39835 -24.6696
ltibia 48.0403
lfoot -13.2306 8.50228
ltoes 7.12038
1372
root 0.645027 14.8372 1.35825 6.82466 -9.74101 2.0507
lowerback -1.73027 2.70132 -0.0945139
upperback -6.91306 3.59145 -0.316128
thorax -6.18684 1.77679 -0.407228
lowerneck -17.2316 2.19341 7.78554
upperneck 33.5662 2.64696 -5.63187
head 14.6671 1.35414 -3.23069
rclavicle -3.47873e-015 1.19271e-015
rhumerus -9.50001 23.2696 -77.023
rradius 130.065
rwrist -2.30365
rhand -39.5419 15.9778
rfingers 7.12502
rthumb -12.5262 -13.6268
lclavicle -3.47873e-015 1.19271e-015
lhumerus -16.3133 -11.0055 56.6127
lradius 140.736
lwrist -3.91842
lhand -34.1253 3.077
lfingers 7.12502
lthumb -7.30056 32.9311
rfemur -18.5313 -7.49854 7.58797
rtibia 86.4999
rfoot -4.48647 -1.09284
rtoes -17.8739
lfemur -37.9118 -6.69272 -24.846
ltibia 47.129
lfoot -13.1301 8.66608
ltoes 7.27293
1373
root 0.675499 14.9034 1.43281 6.281 -9.62096 1.95297
lowerback -1.65633 2.57454 -0.0618978
upperback -6.72736 3.43323 -0.0831366
thorax -6.04404 1.70413 -0.176045
lowerneck -16.6872 2.21243 8.01554
upperneck 33.6446 2.71568 -5.83227
head 14.5929 1.39304 -3.34444
rclavicle -2.27111e-014 -1.90833e-014
rhumerus -9.80785 23.0989 -77.2348
rradius 130.103
rwrist -2.41807
rhand -39.5585 15.9766
rfingers 7.12502
rthumb -12.5422 -13.627
lclavicle -2.27111e-014 -1.90833e-014
lhumerus -16.1206 -11.8095 57.6577
lradius 140.548
lwrist -4.01595
lhand -34.4356 3.04207
lfingers 7.12502
lthumb -7.60002 32.8855
rfemur -21.5641 -8.34255 7.69148
rtibia 90.7759
rfoot -4.77608 -0.970277
rtoes -17.8287
lfemur -36.3872 -6.92776 -24.9695
ltibia 46.1309
lfoot -13.0626 8.82895
ltoes 7.41481
1374
root 0.704485 14.9491 1.50218 5.73335 -9.53136 1.82931
lowerback -1.59743 2.45123 0.0166347
upperback -6.53574 3.28044 0.159484
thorax -5.88364 1.63177 0.0398801
lowerneck -16.107 2.23582 8.24335
upperneck 33.7301 2.81189 -6.07223
head 14.5172 1.43915 -3.47004
rclavicle 1.08835e-014 1.47101e-014
rhumerus -10.0693 22.9594 -77.4503
rradius 130.131
rwrist -2.54407
rhand -39.5536 15.9381
rfingers 7.12502
rthumb -12.5374 -13.6657
lclavicle 1.08835e-014 1.47101e-014
lhumerus -15.9338 -12.6747 58.7254
lradius 140.352
lwrist -4.14489
lhand -34.8693 2.94203
lfingers 7.12502
lthumb -8.01861 32.7699
rfemur -24.7364 -9.25779 7.86632
rtibia 95.0043
rfoot -5.054 -0.995458
rtoes -17.611
lfemur -34.9417 -7.09297 -25.0758
ltibia 45.1791
lfoot -12.9628 8.97137
ltoes 7.5513
